<svg xmlns="http://www.w3.org/2000/svg" viewBox="0 0 71.08 87.5"><defs><style>.cls-1,.cls-2{fill:#fff;}.cls-2{font-size:28.31px;font-family:Montserrat-Bold, Montserrat;font-weight:700;letter-spacing:0.1em;}</style></defs><g id="Layer_2" data-name="Layer 2"><g id="OBJECTS"><path class="cls-1" d="M47.57,27.89V0H40.76V31.82a20.84,20.84,0,0,1-2.49.7V5.8H31.45v27A21,21,0,0,1,29,32.39V11.6H22.15V29.37a20.89,20.89,0,0,1-9.08-15.15,20.44,20.44,0,0,1,0-4.76,26,26,0,0,0-1.89,26.1,29.25,29.25,0,0,1-6.14-2.92,30,30,0,0,0,7.13,4.77h0c.48.23,1,.44,1.46.65l.08,0,.63.25.15,0,.59.22.15,0,.66.22.08,0c.5.16,1,.3,1.52.44l.15,0,.6.15.21,0,.56.12.22,0,.59.11.18,0c.52.09,1,.17,1.56.23l.23,0,.55,0,.28,0,.52,0h.28l.55,0h1.05a29.5,29.5,0,0,0,27.62-19A21,21,0,0,1,47.57,27.89Z"/><path class="cls-1" d="M57.32,11l4.34-1.94L51.88,1.8l-.65,12,4.7-2.1a28.92,28.92,0,0,1-28.7,32.56,28.73,28.73,0,0,1-12.29-2.74A26.1,26.1,0,0,0,57.32,11Z"/><text class="cls-2" transform="translate(0 80.17)">SBN</text></g></g></svg>