<svg xmlns="http://www.w3.org/2000/svg" viewBox="0 0 110 168.49"><defs><style>.cls-1,.cls-2{fill:#fff;}.cls-2{fill-rule:evenodd;}</style></defs><g id="Layer_2" data-name="Layer 2"><g id="Layer_1-2" data-name="Layer 1"><path class="cls-1" d="M81.67,53.61V0H68.57V61.18a41.74,41.74,0,0,1-4.79,1.33V11.15H50.68v52a40.35,40.35,0,0,1-4.79-.86v-40H32.79V56.46A40.18,40.18,0,0,1,15.35,27.34a40.59,40.59,0,0,1,.09-9.16,50.11,50.11,0,0,0-3.63,50.18A56.51,56.51,0,0,1,0,62.75a57.42,57.42,0,0,0,13.71,9.16h0c.92.44,1.85.85,2.79,1.24l.16.07,1.22.48.28.11,1.14.41.29.1c.41.15.84.29,1.26.42l.15.05c1,.31,1.94.59,2.92.85l.29.07,1.15.28.42.09,1.06.23.43.09,1.14.21.35.06c1,.17,2,.31,3,.43l.44,0,1.06.11.54,0,1,.07.55,0,1,0,.48,0,1.53,0a56.71,56.71,0,0,0,53.1-36.63A40.36,40.36,0,0,1,81.67,53.61Z"/><path class="cls-1" d="M100.77,18.25l8.58-3.84L90,0,88.73,23.64,98,19.48A57.15,57.15,0,0,1,41.35,83.79a56.85,56.85,0,0,1-24.28-5.41,51.54,51.54,0,0,0,83.7-60.13Z"/><path class="cls-2" d="M60,155.54q-.06-5.22-.11-10.46c-2.3-1.44-4.59-2.88-6.89-4.3l-.61-.38v-8.73l.63-.38c2.23-1.3,4.47-2.58,6.71-3.86l-.06-8.91c-3.22,0-6.44,0-9.66.06q0,4.32-.05,8.64c0,3.29,0,6.58-.06,9.87s0,6.58-.05,9.87l0,8.56c3.39,0,6.79,0,10.18,0M91,128.85,91,127.33l-.27-6.27c-.09-1.87-.17-3.74-.25-5.61l-.06-1.7,1.65.4c2.45.59,4.87,1.29,7.29,2l.89.25,0,.92c.09,1.85.18,3.69.28,5.54q.3,5.72.59,11.44t.61,11.44q.32,5.92.65,11.84c.08,1.25.15,2.49.23,3.73.11,1.83.23,3.65.41,5.47l.16,1.72-1.7-.33c-2.52-.51-5-1-7.58-1.43l-1-.16-.09-1c-.16-1.87-.27-3.75-.36-5.62-.13-2.4-.24-4.79-.36-7.18s-.21-4.56-.31-6.84q-3.27-5-6.52-9.94l-4-6.2c0,1.2.07,2.41.11,3.61.08,2.74.16,5.49.25,8.23s.17,5.48.25,8.22.2,5.48.29,8.22c.07,1.87.14,3.73.27,5.6l.11,1.51L81,165c-2.51-.24-5-.45-7.53-.65l-1.12-.09-.06-1.12c-.1-1.9-.17-3.8-.22-5.7-.08-3.29-.17-6.59-.25-9.88s-.14-6.59-.21-9.88-.16-6.59-.23-9.89-.15-6.59-.21-9.89l-.09-4.27,0-1.41,0-1.47,1.45.16c2.39.27,4.77.54,7.15.87l.6.08.32.51q2,3.1,4,6.2c1.5,2.36,3,4.74,4.49,7.09C89.67,126.74,90.34,127.79,91,128.85ZM37.63,158.68c0,1.44,0,2.88,0,4.32v1.19l-1.19.09c-2.5.19-5,.36-7.51.62-4.3.44-8.6,1-12.87,1.74-2.53.41-5,1-7.56,1.5l-1.63.35.08-1.67c.1-1.82.19-3.64.28-5.46.13-2.5.25-5,.38-7.49s.26-5,.38-7.49L8,144.65l1.63.58c2.44.87,4.89,1.74,7.3,2.71l.85.34,0,.91c-.14,3.05-.27,6.09-.39,9.14,3.4-.55,6.82-1,10.24-1.44,0-.7.05-1.4.06-2.11.06-2.11.11-4.22.17-6.33-3.81-1.83-7.66-3.58-11.57-5.19-2.33-1-4.73-1.78-7.11-2.61l-.91-.31.05-1q.16-3.51.35-7l.36-7c0-.68.07-1.37.1-2.06.09-1.82.19-3.65.28-5.48l.05-.91.88-.25c2.41-.7,4.81-1.42,7.26-2,4.07-1,8.19-1.79,12.33-2.46,2.38-.38,4.77-.66,7.16-1l1.48-.18,0,1.49c0,1.88-.07,3.76-.11,5.64-.06,3.14-.14,6.28-.2,9.42s-.12,6.27-.17,9.41l0,2.07-1.84-1c-2.38-1.24-4.77-2.47-7.17-3.67l-.74-.36,0-.82.21-7.12c.05-1.86.11-3.71.16-5.57-3.27.54-6.51,1.18-9.74,1.88L18.67,128c-.08,2-.17,4.11-.26,6.16,3.89,1.63,7.73,3.33,11.52,5.18,2.45,1.2,4.86,2.47,7.28,3.74l.7.36v.79q-.06,3.61-.14,7.22c0,2-.07,4-.1,6C37.66,157.82,37.65,158.25,37.63,158.68ZM62,136.19c2.36,1.56,4.74,3.12,7.1,4.69l.56.37v.68q.09,5.22.2,10.44c.07,3.47.14,6.94.27,10.41l0,1.39-1.39-.06c-4.63-.2-9.26-.39-13.9-.4s-9.28.14-13.92.31l-1.34,0v-1.34q0-6.31.13-12.65T40,137.42q.1-6.33.19-12.66t.19-12.68l0-1.17,1.17-.09c4.41-.31,8.82-.59,13.24-.62s8.82.17,13.22.4l1.2.06,0,1.21c0,3.25.1,6.5.15,9.74s.1,6.5.16,9.75v.79l-.7.37C66.57,133.72,64.3,135,62,136.19Z"/></g></g></svg>